<?xml version="1.0" standalone="no"?>
<!DOCTYPE svg PUBLIC "-//W3C//DTD SVG 20010904//EN"
 "http://www.w3.org/TR/2001/REC-SVG-20010904/DTD/svg10.dtd">
<svg version="1.0" xmlns="http://www.w3.org/2000/svg"
 width="500.000000pt" height="500.000000pt" viewBox="0 0 500.000000 500.000000"
 preserveAspectRatio="xMidYMid meet">

<g transform="translate(0.000000,500.000000) scale(0.100000,-0.100000)"
fill="#000000" stroke="none">
<path d="M1139 3156 c-60 -16 -130 -58 -164 -98 -34 -41 -75 -125 -75 -156 0
-35 16 -18 23 24 8 51 59 125 111 163 119 84 254 81 313 -8 27 -40 59 -140 69
-210 l6 -49 -36 -12 c-98 -32 -102 -163 -4 -163 43 0 58 25 58 95 l0 58 88 0
c48 0 92 -4 99 -8 16 -10 30 -168 43 -462 13 -310 13 -453 -2 -468 -19 -19
-936 -11 -951 9 -6 7 11 576 22 743 7 107 15 162 23 168 31 19 199 1 214 -23
3 -5 -8 -21 -25 -35 -40 -33 -42 -76 -6 -100 21 -14 30 -14 55 -4 33 14 46 44
37 89 -7 35 7 41 111 41 41 0 72 4 72 10 0 11 -78 12 -155 2 -40 -6 -58 -3
-92 14 -54 28 -147 39 -200 25 l-41 -11 -6 -103 c-16 -252 -26 -496 -26 -658
l0 -177 133 -6 c188 -10 830 -12 845 -3 23 15 12 636 -16 902 l-7 60 -107 9
-106 9 -12 64 c-27 158 -83 249 -167 272 -47 13 -66 13 -124 -3z m281 -415 c0
-70 -16 -90 -58 -75 -39 14 -43 73 -8 109 14 14 34 25 46 25 18 0 20 -6 20
-59z m-398 -36 c22 -48 -43 -100 -80 -63 -18 18 -15 36 13 63 31 32 52 32 67
0z"/>
<path d="M3443 2615 c-45 -19 -73 -69 -73 -130 0 -111 88 -175 198 -146 l42
12 0 51 c0 33 6 58 16 69 15 17 14 17 -12 10 -26 -7 -29 -12 -32 -56 -2 -27
-8 -55 -14 -62 -13 -16 -82 -17 -109 -3 -68 37 -63 207 7 239 53 24 103 10
128 -37 12 -20 15 -23 16 -9 0 33 -20 56 -58 67 -48 13 -70 12 -109 -5z"/>
<path d="M1896 2606 c13 -10 36 -60 63 -140 24 -69 46 -126 50 -126 4 0 20 39
35 87 l28 86 14 -31 c7 -17 21 -56 30 -87 10 -30 21 -55 25 -55 4 0 26 57 50
128 23 70 44 133 47 140 2 6 0 12 -5 12 -4 0 -23 -45 -42 -100 -19 -56 -38
-97 -42 -93 -5 5 -20 42 -34 83 -28 83 -48 110 -81 110 l-23 0 24 -25 c14 -13
25 -34 25 -46 0 -27 -31 -129 -39 -129 -3 0 -19 37 -35 83 -33 95 -49 117 -85
117 -25 0 -25 0 -5 -14z"/>
<path d="M2326 2486 c-59 -142 -61 -146 -48 -146 5 0 15 18 22 40 l13 40 63 0
c60 0 64 -2 70 -25 7 -30 40 -55 69 -55 18 1 18 2 3 10 -9 6 -40 68 -69 140
-29 71 -56 130 -60 130 -3 0 -32 -60 -63 -134z m74 18 c11 -26 20 -50 20 -55
0 -5 -20 -9 -45 -9 -25 0 -45 3 -45 6 0 8 42 104 46 104 2 0 12 -21 24 -46z"/>
<path d="M2543 2609 c15 -9 17 -27 17 -139 0 -123 1 -130 20 -130 18 0 20 7
20 65 0 79 17 86 56 23 43 -69 64 -88 98 -87 30 0 30 1 8 11 -12 6 -36 33 -53
61 l-30 49 31 27 c26 22 31 32 28 61 -4 49 -49 70 -143 70 -52 -1 -66 -3 -52
-11z m141 -28 c10 -11 16 -29 14 -42 -4 -31 -50 -63 -77 -54 -18 5 -21 14 -21
61 l0 54 33 0 c21 0 41 -8 51 -19z"/>
<path d="M2786 2610 c20 -8 22 -18 26 -115 3 -103 5 -108 31 -131 41 -35 124
-34 158 2 22 23 24 35 28 140 2 73 0 114 -7 114 -6 0 -12 -45 -14 -115 -3
-128 -10 -142 -70 -152 -30 -4 -41 -1 -62 20 -24 25 -26 32 -26 125 0 108 -6
122 -54 121 -28 0 -29 -1 -10 -9z"/>
<path d="M3090 2600 c18 -18 20 -35 22 -142 l2 -123 5 114 6 113 88 -111 c49
-61 90 -111 93 -111 2 0 3 64 2 143 -2 126 -3 130 -5 40 -2 -57 -7 -103 -11
-103 -4 1 -32 33 -62 72 -83 107 -105 128 -134 128 l-26 0 20 -20z"/>
<path d="M2017 2193 c-19 -18 -5 -52 29 -72 19 -12 34 -27 32 -34 -6 -17 -49
-21 -60 -5 -8 10 -9 10 -5 -2 5 -20 60 -25 76 -7 16 21 5 43 -36 67 -19 11
-33 26 -30 33 6 20 40 21 54 1 11 -15 13 -15 13 -2 0 23 -55 39 -73 21z"/>
<path d="M2250 2181 c5 -11 10 -42 10 -68 0 -47 1 -49 30 -51 24 -2 33 3 42
23 16 35 -3 75 -36 75 -15 0 -25 7 -29 20 -3 11 -10 20 -16 20 -8 0 -9 -6 -1
-19z m66 -56 c8 -34 -2 -57 -23 -53 -19 3 -29 38 -19 64 9 23 35 16 42 -11z"/>
<path d="M2378 2130 c2 -38 8 -70 13 -70 13 0 7 132 -6 137 -6 2 -9 -23 -7
-67z"/>
<path d="M2559 2182 c6 -11 11 -45 12 -74 1 -35 3 -45 8 -30 l6 24 19 -21 c28
-30 41 -26 17 6 l-21 26 22 24 c12 12 17 23 11 23 -5 0 -18 -10 -29 -21 l-19
-21 -5 38 c-3 20 -11 39 -18 42 -11 3 -12 0 -3 -16z"/>
<path d="M2759 2184 c-10 -13 -10 -19 0 -36 10 -17 10 -23 -5 -39 -14 -15 -14
-21 -4 -34 7 -8 17 -15 22 -15 6 0 6 6 -1 14 -6 7 -8 21 -5 30 6 15 9 15 30
-5 16 -15 20 -25 13 -30 -6 -3 0 -6 13 -6 16 0 24 5 24 18 0 9 -3 16 -7 14 -3
-3 -14 4 -23 14 -14 16 -15 23 -5 39 25 40 -21 73 -52 36z m46 -4 c10 -16 -16
-43 -28 -31 -11 11 -2 41 12 41 5 0 13 -5 16 -10z"/>
<path d="M2968 2131 l4 -71 29 0 c58 0 87 32 54 60 -11 9 -12 16 -2 31 16 25
0 39 -49 46 l-39 5 3 -71z m56 53 c20 -8 20 -23 -1 -46 -14 -16 -15 -18 0 -18
9 0 18 -4 21 -9 11 -18 -6 -41 -30 -41 -23 0 -24 3 -24 60 0 60 4 66 34 54z"/>
<path d="M3219 2182 c6 -11 11 -45 12 -74 1 -35 3 -45 8 -30 l6 24 19 -21 c28
-30 41 -26 17 6 l-21 26 22 24 c12 12 17 23 11 23 -5 0 -18 -10 -29 -21 l-19
-21 -5 38 c-3 20 -11 39 -18 42 -11 3 -12 0 -3 -16z"/>
<path d="M2146 2144 c-19 -18 -20 -38 -6 -65 11 -19 54 -27 64 -10 3 4 -6 6
-19 3 -14 -2 -25 0 -26 4 0 5 -2 17 -4 28 -2 10 -1 24 2 32 8 21 33 17 33 -6
0 -11 5 -20 10 -20 16 0 11 37 -6 44 -24 9 -31 8 -48 -10z"/>
<path d="M2456 2152 c-3 -5 4 -8 16 -8 33 1 32 -21 -2 -33 -38 -13 -38 -45 0
-48 15 -1 18 0 8 3 -22 7 -23 30 -2 38 23 9 24 8 24 -19 0 -14 5 -25 10 -25
14 0 12 74 -2 88 -14 14 -44 16 -52 4z"/>
<path d="M3116 2152 c-3 -5 4 -8 16 -8 33 1 32 -21 -2 -33 -38 -13 -38 -45 0
-48 15 -1 18 0 8 3 -22 7 -23 30 -2 38 23 9 24 8 24 -19 0 -14 5 -25 10 -25
14 0 12 74 -2 88 -14 14 -44 16 -52 4z"/>
<path d="M3347 2153 c-15 -14 -6 -40 18 -51 14 -6 25 -17 25 -23 0 -7 -10 -9
-25 -7 -14 3 -25 1 -25 -4 0 -5 15 -8 32 -6 45 4 49 32 7 53 -23 13 -28 20
-20 28 9 9 17 8 34 -2 20 -13 21 -13 8 2 -14 17 -42 22 -54 10z"/>
<path d="M3463 2148 c-19 -25 -21 -46 -6 -67 31 -45 95 -1 70 49 -14 28 -49
38 -64 18z m46 -16 c14 -26 2 -62 -19 -62 -21 0 -33 36 -19 62 12 23 26 23 38
0z"/>
</g>
</svg>
