<?xml version="1.0" standalone="no"?>
<!DOCTYPE svg PUBLIC "-//W3C//DTD SVG 20010904//EN"
 "http://www.w3.org/TR/2001/REC-SVG-20010904/DTD/svg10.dtd">
<svg version="1.0" xmlns="http://www.w3.org/2000/svg"
 width="1801.000000pt" height="945.000000pt" viewBox="0 0 1801.000000 945.000000"
 preserveAspectRatio="xMidYMid meet">

<g transform="translate(0.000000,945.000000) scale(0.100000,-0.100000)"
fill="#000000" stroke="none">
<path d="M3643 9270 c-18 -4 -40 -13 -49 -20 -45 -38 -44 -11 -44 -1050 l0
-980 -175 0 -175 0 0 1015 0 1015 -30 0 c-73 0 -167 -55 -199 -117 -15 -30
-16 -2673 0 -2776 27 -179 91 -335 195 -472 53 -71 141 -162 147 -154 2 2 14
29 26 59 109 263 311 560 558 819 l108 113 125 -128 c221 -227 402 -488 516
-742 20 -45 42 -81 48 -79 6 2 41 41 78 87 124 153 197 340 217 551 15 154 15
2629 1 2681 -17 59 -100 116 -192 133 l-38 7 0 -1001 0 -1001 -175 0 -175 0 0
971 c0 878 -2 974 -16 1005 -20 42 -64 67 -115 66 -49 -1 -75 -16 -99 -55 -19
-31 -20 -59 -20 -1014 l0 -983 -180 0 -180 0 0 975 c0 947 -1 977 -19 1014
-18 35 -38 48 -91 63 -8 3 -30 1 -47 -2z"/>
<path d="M3962 6320 c-76 -87 -196 -253 -254 -350 -169 -285 -255 -535 -280
-807 l-12 -132 -33 14 c-52 22 -176 45 -240 45 -136 0 -321 -60 -421 -137 -36
-27 -36 -18 -6 -178 52 -272 224 -558 442 -737 l83 -68 -192 0 -191 0 -42 47
c-60 69 -112 139 -158 216 l-40 67 -72 0 c-89 0 -631 -26 -831 -40 -821 -58
-1382 -143 -1541 -236 -56 -32 -64 -54 -21 -54 29 -1 30 -2 12 -12 -44 -26
-46 -35 -40 -193 42 -1135 580 -2178 1475 -2862 1130 -863 2640 -1025 3915
-418 637 303 1175 771 1549 1348 378 585 584 1228 613 1917 6 167 1 193 -40
210 -21 8 -20 9 6 9 33 1 34 13 5 41 -69 64 -386 133 -843 185 -345 38 -861
78 -1170 90 -82 3 -170 8 -195 10 -45 5 -45 5 -69 -40 -26 -50 -129 -192 -178
-249 l-32 -36 -193 0 c-172 1 -191 2 -173 15 49 36 185 165 226 215 150 181
258 418 291 638 12 85 12 86 -73 137 -164 100 -394 131 -569 76 -36 -12 -68
-21 -71 -21 -3 0 -9 48 -12 106 -19 296 -132 605 -336 916 -70 107 -233 320
-244 318 -1 -1 -21 -23 -45 -50z m-2727 -2683 c-257 -261 -452 -497 -643 -780
l-106 -158 -24 68 c-38 110 -109 398 -131 533 -23 139 -36 255 -46 408 l-7
102 563 0 564 0 -170 -173z m801 -9 c-341 -342 -603 -681 -841 -1093 -63 -108
-221 -422 -276 -547 -27 -61 -36 -75 -46 -65 -39 39 -231 390 -287 525 l-27
64 27 46 c46 80 183 281 269 397 191 258 413 505 647 722 l143 133 287 0 287
0 -183 -182z m840 30 c-645 -647 -1108 -1418 -1366 -2272 l-48 -160 -124 125
c-140 139 -338 374 -338 400 0 25 89 229 180 414 290 586 743 1175 1238 1608
l42 37 284 0 284 0 -152 -152z m878 67 c-160 -148 -402 -421 -572 -646 -467
-618 -812 -1373 -967 -2114 -15 -71 -33 -154 -39 -183 l-11 -53 -133 80 c-72
44 -162 102 -200 128 -88 63 -232 173 -232 179 0 29 102 359 161 519 297 810
797 1540 1461 2133 l48 42 287 0 288 -1 -91 -84z m750 -64 c-432 -426 -750
-865 -1028 -1421 -264 -529 -440 -1090 -517 -1652 -12 -90 -23 -164 -24 -166
-1 -1 -55 14 -121 34 -116 36 -321 115 -437 169 l-59 27 7 47 c13 94 57 300
97 451 182 701 522 1381 972 1945 164 206 452 508 630 663 l60 52 285 0 286 0
-151 -149z m1326 33 c350 -264 651 -561 912 -900 92 -120 259 -365 328 -482
l43 -74 -20 -42 c-55 -113 -244 -406 -262 -406 -5 0 -31 39 -57 87 -180 321
-453 679 -744 977 -355 363 -735 654 -1161 889 l-33 18 30 24 29 24 391 1 390
0 154 -116z m1014 -16 c201 -207 367 -407 503 -606 l57 -82 -14 -53 c-30 -120
-167 -494 -190 -520 -4 -4 -24 21 -45 55 -295 483 -707 943 -1176 1310 l-34
27 385 1 385 0 129 -132z m676 85 c-1 -130 -55 -557 -70 -551 -5 2 -41 46 -80
98 -94 123 -189 235 -323 382 l-108 118 290 0 291 0 0 -47z m-2585 -241 c522
-310 1009 -746 1375 -1232 138 -183 293 -423 374 -577 l38 -73 -25 -34 c-74
-96 -302 -334 -312 -324 -3 3 -37 61 -76 129 -430 753 -1088 1407 -1851 1840
-43 24 -78 47 -78 51 0 4 75 84 166 178 l167 170 56 -32 c31 -17 106 -60 166
-96z m-572 -399 c391 -225 712 -469 1033 -788 273 -272 468 -512 662 -815 80
-125 202 -338 202 -352 0 -14 -290 -237 -367 -282 -8 -4 -19 7 -32 32 -11 22
-58 101 -105 176 -413 662 -982 1224 -1648 1626 l-126 76 76 105 c112 153 204
269 214 269 5 0 46 -21 91 -47z m-346 -534 c678 -410 1243 -975 1647 -1648
l86 -144 -97 -56 c-54 -30 -149 -79 -212 -108 l-114 -52 -88 134 c-386 591
-898 1100 -1476 1465 -56 36 -103 69 -103 74 0 16 225 406 235 406 2 0 57 -32
122 -71z m-96 -709 c280 -204 628 -526 830 -770 187 -225 430 -573 413 -590
-17 -17 -422 -140 -460 -140 -6 0 -60 66 -121 148 -296 395 -676 766 -1075
1049 -59 42 -108 82 -108 89 0 18 47 138 119 301 l63 142 113 -73 c62 -41 164
-111 226 -156z m-421 -494 c74 -55 182 -141 240 -190 131 -112 409 -389 522
-521 92 -108 260 -326 255 -331 -14 -15 -391 -54 -517 -54 l-57 0 -143 155
c-149 160 -323 324 -496 465 -54 45 -100 88 -102 95 -6 25 111 445 135 488 6
10 9 8 163 -107z m33 -895 c103 -102 187 -188 187 -192 0 -9 -104 -1 -290 22
-132 17 -328 53 -335 61 -4 5 22 203 39 308 27 159 13 152 119 63 51 -43 176
-161 280 -262z"/>
<path d="M16955 4404 c-38 -8 -113 -35 -165 -61 -169 -82 -292 -234 -334 -413
-20 -82 -20 -236 -1 -317 28 -119 102 -242 197 -328 70 -63 212 -131 318 -151
187 -37 407 -3 598 92 l92 46 0 259 0 259 -155 0 -155 0 0 -162 c0 -90 -4
-168 -8 -175 -16 -24 -123 -45 -211 -41 -148 7 -244 69 -305 197 -28 60 -31
75 -30 161 0 71 5 108 21 146 59 149 179 220 357 212 104 -4 169 -29 244 -94
l43 -36 42 36 c23 19 74 65 112 101 l70 65 -55 51 c-70 65 -210 134 -312 154
-95 19 -269 18 -363 -1z"/>
<path d="M8730 4393 c0 -5 91 -288 202 -630 l202 -623 187 0 188 0 127 388
c70 213 129 380 133 372 3 -8 58 -181 122 -385 l116 -370 189 -3 189 -2 199
617 c110 340 202 624 204 631 3 10 -31 12 -163 10 l-167 -3 -131 -403 c-72
-221 -134 -399 -138 -395 -3 5 -62 187 -130 405 l-124 398 -162 0 -162 0 -132
-401 c-72 -220 -135 -397 -139 -392 -4 4 -63 185 -131 401 l-123 392 -178 0
c-98 0 -178 -3 -178 -7z"/>
<path d="M11271 4358 c-10 -24 -132 -299 -271 -613 -139 -313 -255 -578 -257
-588 -5 -16 6 -17 172 -15 l177 3 48 120 48 120 270 3 270 2 49 -122 49 -123
183 -3 c112 -1 182 1 179 7 -1 5 -127 289 -278 630 l-275 621 -173 0 -173 0
-18 -42z m272 -506 c43 -108 78 -200 77 -204 0 -5 -72 -8 -160 -8 -88 0 -160
3 -160 8 -1 12 155 402 160 402 3 0 40 -89 83 -198z"/>
<path d="M12300 3771 l0 -631 175 0 175 0 2 168 3 167 99 0 99 0 115 -167 114
-168 184 0 c101 0 184 2 184 5 0 3 -58 91 -130 195 -71 104 -130 191 -130 193
0 3 22 19 49 37 68 43 118 100 154 177 55 120 48 305 -18 417 -35 60 -120 137
-185 169 -117 57 -146 60 -532 65 l-358 4 0 -631z m675 330 c48 -22 69 -44 90
-94 20 -48 19 -103 -4 -152 -39 -86 -87 -104 -273 -105 l-138 0 0 185 0 185
143 0 c116 0 149 -4 182 -19z"/>
<path d="M13623 3988 c4 -451 6 -469 67 -593 33 -69 116 -157 187 -198 167
-96 458 -103 643 -15 87 42 180 135 220 221 55 117 60 162 60 600 l0 397 -170
0 -170 0 0 -362 c0 -211 -4 -387 -11 -423 -22 -127 -91 -196 -205 -203 -87 -6
-149 13 -194 58 -71 71 -73 86 -78 533 l-4 397 -175 0 -175 0 5 -412z"/>
<path d="M15050 3770 l0 -630 170 0 170 0 0 335 c0 184 3 335 8 334 4 0 131
-151 282 -334 l275 -335 143 0 142 0 0 630 0 630 -170 0 -170 0 -2 -337 -3
-338 -279 338 -279 337 -143 0 -144 0 0 -630z"/>
<path d="M9959 2867 c-60 -40 -69 -128 -18 -170 12 -9 59 -29 105 -43 115 -35
142 -67 92 -114 -30 -28 -123 -28 -180 1 -33 17 -42 18 -49 7 -17 -25 -9 -39
34 -58 63 -29 173 -27 218 3 46 31 64 70 53 116 -12 45 -53 74 -141 95 -77 19
-97 31 -107 63 -5 17 -1 29 18 48 21 21 35 25 81 25 31 0 69 -7 85 -15 27 -14
30 -14 40 4 5 11 10 22 10 26 0 16 -76 35 -138 35 -55 0 -76 -5 -103 -23z"/>
<path d="M10380 2680 l0 -210 150 0 150 0 0 25 0 25 -120 0 -120 0 0 70 0 70
105 0 105 0 0 25 0 25 -105 0 -105 0 0 65 0 65 115 0 115 0 0 25 0 25 -145 0
-145 0 0 -210z"/>
<path d="M10850 2680 l0 -210 128 0 c177 1 232 27 232 110 0 40 -24 87 -49 95
-19 6 -19 7 5 42 28 41 30 72 9 112 -23 45 -77 61 -210 61 l-115 0 0 -210z
m254 139 c31 -25 34 -61 6 -89 -17 -17 -33 -20 -110 -20 l-90 0 0 65 0 65 84
0 c69 0 88 -4 110 -21z m25 -183 c21 -19 28 -61 13 -82 -16 -25 -55 -34 -141
-34 l-91 0 0 71 0 71 99 -4 c80 -2 103 -7 120 -22z"/>
<path d="M11380 2680 l0 -210 140 0 140 0 0 25 0 25 -110 0 -110 0 0 185 0
185 -30 0 -30 0 0 -210z"/>
<path d="M11927 2883 c-6 -9 -141 -307 -168 -370 l-18 -43 30 0 c27 0 33 6 52
50 l21 50 116 0 116 0 19 -50 c18 -46 22 -50 52 -50 l32 0 -19 43 c-10 23 -53
116 -94 207 -71 155 -77 165 -105 168 -16 2 -31 -1 -34 -5z m80 -161 l41 -97
-85 -3 c-47 -2 -87 -1 -89 1 -5 5 79 197 86 197 3 0 24 -44 47 -98z"/>
<path d="M12310 2680 l0 -210 30 0 c30 0 30 1 30 53 0 49 3 56 41 92 l40 40
47 -55 c105 -123 115 -132 149 -128 l31 3 -95 114 -96 113 87 87 c47 47 86 90
86 94 0 4 -12 7 -27 7 -22 0 -53 -25 -145 -117 l-118 -118 0 118 0 117 -30 0
-30 0 0 -210z"/>
<path d="M13109 2875 c-51 -28 -59 -92 -19 -145 l18 -24 -44 -39 c-71 -62 -67
-144 8 -183 45 -23 157 -16 196 13 l29 21 26 -26 c25 -25 28 -25 44 -9 16 16
15 18 -12 46 -20 22 -25 34 -18 43 6 7 15 28 21 46 10 30 9 34 -11 41 -19 7
-24 4 -33 -22 -6 -17 -15 -32 -20 -34 -5 -2 -29 17 -54 42 l-44 45 42 38 c35
32 42 45 42 76 0 55 -35 86 -97 86 -26 -1 -60 -7 -74 -15z m109 -37 c21 -21
13 -55 -19 -82 -38 -32 -43 -32 -63 -1 -33 51 -15 95 39 95 17 0 36 -5 43 -12z
m-16 -225 c32 -32 58 -61 58 -64 0 -4 -20 -15 -45 -24 -109 -42 -192 43 -114
116 17 16 34 29 37 29 4 0 32 -26 64 -57z"/>
<path d="M13760 2680 l0 -210 123 0 c141 0 188 10 217 47 30 38 27 106 -5 138
-13 14 -29 25 -35 25 -7 0 0 14 14 31 51 61 25 147 -52 169 -20 5 -88 10 -149
10 l-113 0 0 -210z m266 136 c21 -30 17 -72 -8 -90 -16 -12 -47 -16 -110 -16
l-88 0 0 66 0 66 96 -4 c81 -2 98 -6 110 -22z m13 -180 c16 -15 21 -29 19 -55
-4 -49 -32 -61 -145 -61 l-93 0 0 71 0 71 99 -4 c81 -2 103 -7 120 -22z"/>
<path d="M14325 2689 c-49 -111 -91 -205 -93 -210 -2 -5 10 -9 27 -9 27 0 33
6 52 50 l21 50 115 0 114 0 21 -50 c19 -46 24 -50 53 -50 l33 0 -96 210 c-94
208 -96 210 -126 210 -31 0 -32 -3 -121 -201z m169 33 c20 -46 36 -87 36 -92
0 -6 -38 -10 -85 -10 -47 0 -85 3 -85 6 0 19 84 193 90 187 4 -4 24 -45 44
-91z"/>
<path d="M14800 2680 l0 -210 30 0 c30 0 30 1 30 53 0 49 3 56 40 92 l40 39
34 -40 c19 -21 54 -62 78 -91 35 -43 49 -52 76 -53 17 0 32 2 32 5 0 3 -41 55
-91 115 l-91 110 87 93 86 92 -31 3 c-28 3 -42 -8 -145 -115 l-114 -118 -1
118 0 117 -30 0 -30 0 0 -210z"/>
<path d="M15319 2867 c-60 -40 -69 -128 -18 -170 12 -9 59 -29 105 -43 115
-35 142 -67 92 -114 -30 -28 -123 -28 -180 1 -33 17 -42 18 -49 7 -17 -25 -9
-39 34 -58 63 -29 173 -27 218 3 46 31 64 70 53 116 -12 45 -53 74 -141 95
-77 19 -97 31 -107 63 -5 17 -1 29 18 48 21 21 35 25 81 25 31 0 69 -7 85 -15
27 -14 30 -14 40 4 5 11 10 22 10 26 0 16 -76 35 -138 35 -55 0 -76 -5 -103
-23z"/>
<path d="M15830 2874 c-166 -72 -165 -319 2 -389 21 -8 66 -15 100 -15 89 0
156 39 192 112 52 105 20 223 -78 278 -42 25 -62 30 -116 30 -36 -1 -81 -8
-100 -16z m180 -56 c57 -39 75 -72 75 -138 0 -66 -18 -99 -75 -137 -60 -41
-164 -24 -210 35 -46 57 -46 146 0 204 46 59 150 77 210 36z"/>
</g>
</svg>
